<?xml version="1.0" encoding="UTF-8"?>
<svg width="71px" height="73px" viewBox="0 0 71 73" version="1.1" xmlns="http://www.w3.org/2000/svg" xmlns:xlink="http://www.w3.org/1999/xlink">
    <!-- Generator: Sketch 47.1 (45422) - http://www.bohemiancoding.com/sketch -->
    <title>logo edit</title>
    <desc>Created with Sketch.</desc>
    <defs>
        <linearGradient x1="164.491894%" y1="-20.2002415%" x2="-10.566089%" y2="108.465652%" id="linearGradient-1">
            <stop stop-color="#688181" offset="0%"></stop>
            <stop stop-color="#E4EEEE" offset="100%"></stop>
        </linearGradient>
    </defs>
    <g id="Page-1" stroke="none" stroke-width="1" fill="none" fill-rule="evenodd">
        <g id="Edit-delete" transform="translate(-1301.000000, -69.000000)" fill-rule="nonzero" fill="url(#linearGradient-1)">
            <g id="Header">
                <g id="logo-edit" transform="translate(1301.000000, 69.000000)">
                    <path d="M35.5,73 C45.0089286,73 53.8839286,69.1707589 60.6194196,62.3270089 C67.3549107,55.4832589 71,46.2767857 71,36.5 C71,26.7232143 67.2756696,17.5982143 60.6194196,10.6729911 C53.9631696,3.74776786 45.0089286,0 35.5,0 C25.9910714,0 17.1160714,3.74776786 10.3805804,10.6729911 C3.64508929,17.5982143 0,26.7232143 0,36.5 C0,46.2767857 3.72433036,55.4017857 10.3805804,62.3270089 C17.1160714,69.2522321 25.9910714,73 35.5,73 Z M35.5,2.8515625 C53.5669643,2.8515625 68.2265625,17.9241071 68.2265625,36.5 C68.2265625,55.0758929 53.5669643,70.1484375 35.5,70.1484375 C17.4330357,70.1484375 2.7734375,55.0758929 2.7734375,36.5 C2.7734375,17.9241071 17.4330357,2.8515625 35.5,2.8515625 Z M43.5033482,52.7946429 L43.5033482,23.8716518 L40.7299107,23.8716518 L40.7299107,50.8392857 L37.0055804,50.8392857 L37.0055804,23.8716518 L34.2321429,23.8716518 L34.2321429,50.8392857 L30.5078125,50.8392857 L30.5078125,23.8716518 L27.734375,23.8716518 L27.734375,52.7946429 L35.5,63.5491071 L43.5033482,52.7946429 Z M31.7756696,53.7723214 L39.2243304,53.7723214 L35.5,58.7421875 L31.7756696,53.7723214 Z M43.5033482,18.5758929 C43.5033482,14.0948661 39.8582589,10.4285714 35.5,10.4285714 C31.1417411,10.4285714 27.4966518,14.0948661 27.4966518,18.6573661 L27.4966518,21.0200893 L43.4241071,21.0200893 L43.4241071,18.5758929 L43.5033482,18.5758929 Z M30.3493304,18.0870536 C30.5870536,15.3984375 32.8058036,13.2801339 35.5,13.2801339 C38.1941964,13.2801339 40.4129464,15.3984375 40.6506696,18.0870536 L30.3493304,18.0870536 Z" id="Shape"></path>
                </g>
            </g>
        </g>
    </g>
</svg>