<?xml version="1.0" encoding="UTF-8"?>
<svg width="75px" height="75px" viewBox="0 0 75 75" version="1.1" xmlns="http://www.w3.org/2000/svg" xmlns:xlink="http://www.w3.org/1999/xlink">
    <!-- Generator: Sketch 47.1 (45422) - http://www.bohemiancoding.com/sketch -->
    <title>logo delete</title>
    <desc>Created with Sketch.</desc>
    <defs></defs>
    <g id="Page-1" stroke="none" stroke-width="1" fill="none" fill-rule="evenodd">
        <g id="Edit-delete" transform="translate(-1299.000000, -154.000000)">
            <g id="Header">
                <g id="logo-delete" transform="translate(1301.000000, 156.000000)">
                    <circle id="Oval-2" stroke="#A6B7B7" stroke-width="3" cx="35.5" cy="35.5" r="35.5"></circle>
                    <g id="noun_1554693_cc" transform="translate(15.000000, 12.000000)" fill-rule="nonzero" fill="#BECCCC">
                        <g id="Group">
                            <polygon id="Shape" points="17.8024103 41.125 16.0283718 17.0909091 13.4075256 17.0909091 15.1815641 41.125"></polygon>
                            <polygon id="Shape" points="27.5924744 17.0909091 24.9716282 17.0909091 23.1975897 41.125 25.8184359 41.125"></polygon>
                            <path d="M38.3586538,6.22002273 C38.266141,5.56255682 37.7121154,5.07386364 37.0576923,5.07386364 L3.94230769,5.07386364 C3.28841026,5.07386364 2.73385897,5.56255682 2.64134615,6.22002273 L0.0131410256,13.8863636 L3.82666667,13.8863636 L8.5574359,45.6033523 C8.65730769,46.253875 9.20817949,46.7329545 9.85576923,46.7329545 L31.1442308,46.7329545 C31.7918205,46.7329545 32.3426923,46.253875 32.4425641,45.6033523 L37.1733333,13.8863636 L40.986859,13.8863636 L38.3586538,6.22002273 Z M35.9181026,7.74431818 L37.015641,11.2159091 L3.98488462,11.2159091 L5.08189744,7.74431818 L35.9181026,7.74431818 Z M30.0188333,44.0625 L10.9811667,44.0625 L6.42333333,13.8863636 L34.5766667,13.8863636 L30.0188333,44.0625 Z" id="Shape"></path>
                            <rect id="Rectangle-path" x="15.900641" y="0.267045455" width="9.19871795" height="2.67045455"></rect>
                        </g>
                    </g>
                </g>
            </g>
        </g>
    </g>
</svg>